<svg width="48" height="48" viewBox="0 0 48 48" fill="none" xmlns="http://www.w3.org/2000/svg">
<rect x="4" y="4" width="40" height="40" rx="20" fill="#C4C4C4"/>
<mask id="mask0_224_10080" style="mask-type:alpha" maskUnits="userSpaceOnUse" x="12" y="12" width="24" height="24">
<rect x="12" y="12" width="24" height="24" fill="#D9D9D9"/>
</mask>
<g mask="url(#mask0_224_10080)">
<path d="M18 33C17.7167 33 17.479 32.904 17.287 32.712C17.0957 32.5207 17 32.2833 17 32V29.95C16.7 29.6167 16.4583 29.2457 16.275 28.837C16.0917 28.429 16 27.9833 16 27.5V18C16 16.6167 16.6417 15.604 17.925 14.962C19.2083 14.3207 21.2333 14 24 14C26.8667 14 28.9167 14.3083 30.15 14.925C31.3833 15.5417 32 16.5667 32 18V27.5C32 27.9833 31.9083 28.429 31.725 28.837C31.5417 29.2457 31.3 29.6167 31 29.95V32C31 32.2833 30.904 32.5207 30.712 32.712C30.5207 32.904 30.2833 33 30 33H29C28.7167 33 28.4793 32.904 28.288 32.712C28.096 32.5207 28 32.2833 28 32V31H20V32C20 32.2833 19.9043 32.5207 19.713 32.712C19.521 32.904 19.2833 33 19 33H18ZM18 22H30V19H18V22ZM20.5 28C20.9167 28 21.2707 27.854 21.562 27.562C21.854 27.2707 22 26.9167 22 26.5C22 26.0833 21.854 25.7293 21.562 25.438C21.2707 25.146 20.9167 25 20.5 25C20.0833 25 19.7293 25.146 19.438 25.438C19.146 25.7293 19 26.0833 19 26.5C19 26.9167 19.146 27.2707 19.438 27.562C19.7293 27.854 20.0833 28 20.5 28ZM27.5 28C27.9167 28 28.2707 27.854 28.562 27.562C28.854 27.2707 29 26.9167 29 26.5C29 26.0833 28.854 25.7293 28.562 25.438C28.2707 25.146 27.9167 25 27.5 25C27.0833 25 26.7293 25.146 26.438 25.438C26.146 25.7293 26 26.0833 26 26.5C26 26.9167 26.146 27.2707 26.438 27.562C26.7293 27.854 27.0833 28 27.5 28ZM18.45 17H29.65C29.4 16.7167 28.8627 16.479 28.038 16.287C27.2127 16.0957 25.8833 16 24.05 16C22.2667 16 20.9623 16.104 20.137 16.312C19.3123 16.5207 18.75 16.75 18.45 17ZM20 29H28C28.55 29 29.021 28.8043 29.413 28.413C29.8043 28.021 30 27.55 30 27V24H18V27C18 27.55 18.196 28.021 18.588 28.413C18.9793 28.8043 19.45 29 20 29Z" fill="#1C1B1F"/>
</g>
</svg>
