<svg width="48" height="48" viewBox="0 0 48 48" fill="none" xmlns="http://www.w3.org/2000/svg">
<rect x="4" y="4" width="40" height="40" rx="20" fill="#C4C4C4"/>
<mask id="mask0_224_10079" style="mask-type:alpha" maskUnits="userSpaceOnUse" x="12" y="12" width="24" height="24">
<rect x="12" y="12" width="24" height="24" fill="#D9D9D9"/>
</mask>
<g mask="url(#mask0_224_10079)">
<path d="M16 24H32V20H16V24ZM32 34C31.7167 34 31.4793 33.904 31.288 33.712C31.096 33.5207 31 33.2833 31 33V31H29C28.7167 31 28.4793 30.904 28.288 30.712C28.096 30.5207 28 30.2833 28 30C28 29.7167 28.096 29.4793 28.288 29.288C28.4793 29.096 28.7167 29 29 29H31V27C31 26.7167 31.096 26.479 31.288 26.287C31.4793 26.0957 31.7167 26 32 26C32.2833 26 32.5207 26.0957 32.712 26.287C32.904 26.479 33 26.7167 33 27V29H35C35.2833 29 35.5207 29.096 35.712 29.288C35.904 29.4793 36 29.7167 36 30C36 30.2833 35.904 30.5207 35.712 30.712C35.5207 30.904 35.2833 31 35 31H33V33C33 33.2833 32.904 33.5207 32.712 33.712C32.5207 33.904 32.2833 34 32 34ZM16 32C15.45 32 14.9793 31.8043 14.588 31.413C14.196 31.021 14 30.55 14 30V18C14 17.45 14.196 16.9793 14.588 16.588C14.9793 16.196 15.45 16 16 16H32C32.55 16 33.021 16.196 33.413 16.588C33.8043 16.9793 34 17.45 34 18V24H31C29.6167 24 28.4377 24.4873 27.463 25.462C26.4877 26.4373 26 27.6167 26 29V32H16Z" fill="#1C1B1F"/>
</g>
</svg>
