<svg width="48" height="48" viewBox="0 0 48 48" fill="none" xmlns="http://www.w3.org/2000/svg">
<rect x="4" y="4" width="40" height="40" rx="20" fill="#C4C4C4"/>
<mask id="mask0_224_10081" style="mask-type:alpha" maskUnits="userSpaceOnUse" x="12" y="12" width="24" height="24">
<rect x="12" y="12" width="24" height="24" fill="#D9D9D9"/>
</mask>
<g mask="url(#mask0_224_10081)">
<path d="M27.55 31.975C27.4167 31.975 27.2917 31.9543 27.175 31.913C27.0583 31.871 26.95 31.8 26.85 31.7L24.8 29.65C24.6167 29.4667 24.525 29.2333 24.525 28.95C24.525 28.6667 24.6167 28.4333 24.8 28.25C24.9833 28.0667 25.2167 27.975 25.5 27.975C25.7833 27.975 26.0167 28.0667 26.2 28.25L27.55 29.6L31.9 25.25C32.0833 25.0667 32.3167 24.975 32.6 24.975C32.8833 24.975 33.1167 25.0667 33.3 25.25C33.4833 25.4333 33.575 25.6667 33.575 25.95C33.575 26.2333 33.4833 26.4667 33.3 26.65L28.25 31.7C28.15 31.8 28.0417 31.871 27.925 31.913C27.8083 31.9543 27.6833 31.975 27.55 31.975ZM22 24C20.9 24 19.9583 23.6083 19.175 22.825C18.3917 22.0417 18 21.1 18 20C18 18.9 18.3917 17.9583 19.175 17.175C19.9583 16.3917 20.9 16 22 16C23.1 16 24.0417 16.3917 24.825 17.175C25.6083 17.9583 26 18.9 26 20C26 21.1 25.6083 22.0417 24.825 22.825C24.0417 23.6083 23.1 24 22 24ZM15 32C14.7167 32 14.4793 31.904 14.288 31.712C14.096 31.5207 14 31.2833 14 31V29.2C14 28.65 14.1417 28.1333 14.425 27.65C14.7083 27.1667 15.1 26.8 15.6 26.55C16.45 26.1167 17.4083 25.75 18.475 25.45C19.5417 25.15 20.7167 25 22 25C22.5 25 22.9877 25.025 23.463 25.075C23.9377 25.125 24.4 25.2 24.85 25.3L22.6 27.55C22.2167 27.9333 22.0293 28.404 22.038 28.962C22.046 29.5207 22.2417 29.9917 22.625 30.375L24.25 32H15Z" fill="#1C1B1F"/>
</g>
</svg>
